<svg width="181" height="108" viewBox="0 0 181 108" fill="none" xmlns="http://www.w3.org/2000/svg">
<path d="M54.2009 43.9342L58.9011 39.1035L54.2009 43.9342Z" fill="white"/>
<path d="M54.2009 44.2042C54.131 44.2047 54.0638 44.1773 54.0141 44.1279C53.9094 44.0225 53.9094 43.8518 54.0141 43.7463L58.685 38.9157C58.7894 38.8154 58.954 38.8159 59.0576 38.917C59.1613 39.018 59.1669 39.1834 59.0704 39.2913L54.3702 44.122C54.3252 44.1686 54.2652 44.1977 54.2009 44.2042Z" fill="#231F20"/>
<path d="M58.9011 43.9342L54.2009 39.1035L58.9011 43.9342Z" fill="white"/>
<path d="M58.9009 44.2043C58.8284 44.2036 58.7591 44.174 58.7082 44.1221L54.0372 39.2915C53.9873 39.2419 53.9592 39.1742 53.9592 39.1037C53.9592 39.0331 53.9873 38.9655 54.0372 38.9158C54.1421 38.8106 54.3119 38.8106 54.4168 38.9158L59.1169 43.7465C59.2185 43.8532 59.2185 44.0213 59.1169 44.128C59.0603 44.1853 58.9807 44.2134 58.9009 44.2043Z" fill="#231F20"/>
<path d="M58.9011 43.9342L63.6013 39.1035L58.9011 43.9342Z" fill="white"/>
<path d="M58.901 44.2038C58.8309 44.205 58.7635 44.1775 58.7141 44.1275C58.6125 44.0208 58.6125 43.8527 58.7141 43.746L63.3851 38.9153C63.4344 38.8652 63.5017 38.8369 63.5719 38.8369C63.6421 38.8369 63.7094 38.8652 63.7588 38.9153C63.8102 38.9641 63.8393 39.0321 63.8393 39.1032C63.8393 39.1743 63.8102 39.2422 63.7588 39.291L59.0878 44.1216C59.0383 44.1721 58.9714 44.2016 58.901 44.2038Z" fill="#231F20"/>
<path d="M63.6013 43.9342L58.9011 39.1035L63.6013 43.9342Z" fill="white"/>
<path d="M63.6012 44.2042C63.5287 44.2034 63.4594 44.1739 63.4085 44.122L58.7376 39.2913C58.641 39.1834 58.6466 39.018 58.7503 38.917C58.854 38.8159 59.0186 38.8154 59.1229 38.9157L63.7939 43.7463C63.8456 43.7962 63.8749 43.8651 63.8749 43.9371C63.8749 44.0091 63.8456 44.078 63.7939 44.1279C63.744 44.1807 63.6735 44.2086 63.6012 44.2042Z" fill="#231F20"/>
<path d="M63.6011 43.9342L68.2954 39.1035L63.6011 43.9342Z" fill="white"/>
<path d="M63.6013 44.204C63.531 44.2067 63.463 44.1789 63.4144 44.1277C63.3098 44.0223 63.3098 43.8516 63.4144 43.7462L68.1146 38.9156C68.2209 38.8322 68.3722 38.8409 68.4683 38.936C68.5644 39.0311 68.5754 39.1831 68.4941 39.2912L63.794 44.1219C63.7431 44.1738 63.6738 44.2033 63.6013 44.204Z" fill="#231F20"/>
<path d="M68.2954 43.9342L63.6011 39.1035L68.2954 43.9342Z" fill="white"/>
<path d="M68.3129 44.204C68.2419 44.2045 68.174 44.1746 68.1261 44.1219L63.4259 39.2912C63.3446 39.1831 63.3556 39.0311 63.4517 38.936C63.5478 38.8409 63.6991 38.8322 63.8054 38.9156L68.5056 43.7462C68.6103 43.8516 68.6103 44.0223 68.5056 44.1277C68.4549 44.1792 68.3849 44.2069 68.3129 44.204Z" fill="#231F20"/>
<path d="M68.2954 43.9342L72.9956 39.1035L68.2954 43.9342Z" fill="white"/>
<path d="M68.313 44.2042C68.2431 44.2047 68.1758 44.1773 68.1261 44.1279C68.0214 44.0225 68.0214 43.8518 68.1261 43.7463L72.7971 38.9157C72.9014 38.8154 73.066 38.8159 73.1697 38.917C73.2734 39.018 73.279 39.1834 73.1824 39.2913L68.5115 44.122C68.4591 44.1754 68.3875 44.205 68.313 44.2042Z" fill="#231F20"/>
<path d="M72.9956 43.9342L68.2954 39.1035L72.9956 43.9342Z" fill="white"/>
<path d="M72.9839 44.2043C72.9114 44.2036 72.8421 44.174 72.7912 44.1221L68.1202 39.2915C68.0703 39.2419 68.0422 39.1742 68.0422 39.1037C68.0422 39.0331 68.0703 38.9655 68.1202 38.9158C68.2251 38.8106 68.3949 38.8106 68.4998 38.9158L73.1707 43.7465C73.2723 43.8532 73.2723 44.0213 73.1707 44.128C73.121 44.1774 73.0538 44.2049 72.9839 44.2043Z" fill="#231F20"/>
<path d="M72.9956 43.9342L77.6958 39.1035L72.9956 43.9342Z" fill="white"/>
<path d="M72.984 44.2043C72.9139 44.2055 72.8465 44.178 72.7971 44.128C72.6956 44.0213 72.6956 43.8532 72.7971 43.7465L77.4973 38.9158C77.6021 38.8106 77.772 38.8106 77.8768 38.9158C77.9267 38.9655 77.9548 39.0331 77.9548 39.1037C77.9548 39.1742 77.9267 39.2419 77.8768 39.2915L73.2058 44.1221C73.148 44.1818 73.0665 44.212 72.984 44.2043Z" fill="#231F20"/>
<path d="M77.6958 43.9342L72.9956 39.1035L77.6958 43.9342Z" fill="white"/>
<path d="M77.6958 44.2042C77.6233 44.2034 77.5541 44.1739 77.5032 44.122L72.803 39.2913C72.7064 39.1834 72.7121 39.018 72.8157 38.917C72.9194 38.8159 73.084 38.8154 73.1883 38.9157L77.8593 43.7463C77.964 43.8518 77.964 44.0225 77.8593 44.1279C77.8155 44.1719 77.7576 44.1989 77.6958 44.2042Z" fill="#231F20"/>
<path d="M77.6958 43.9342L82.3901 39.1035L77.6958 43.9342Z" fill="white"/>
<path d="M77.6958 44.204C77.6257 44.2053 77.5583 44.1777 77.5089 44.1277C77.4043 44.0223 77.4043 43.8516 77.5089 43.7462L82.1799 38.9156C82.2862 38.8322 82.4375 38.8409 82.5336 38.936C82.6297 39.0311 82.6407 39.1831 82.5594 39.2912L77.8593 44.1219C77.8157 44.1672 77.758 44.1962 77.6958 44.204Z" fill="#231F20"/>
<path d="M82.3901 43.9342L77.6958 39.1035L82.3901 43.9342Z" fill="white"/>
<path d="M82.3902 44.204C82.3194 44.2031 82.2521 44.1734 82.2033 44.1219L77.5324 39.2912C77.451 39.1831 77.4621 39.0311 77.5582 38.936C77.6543 38.8409 77.8056 38.8322 77.9119 38.9156L82.612 43.7462C82.7167 43.8516 82.7167 44.0223 82.612 44.1277C82.5546 44.1876 82.472 44.216 82.3902 44.204Z" fill="#231F20"/>
<path d="M82.3901 43.9342L87.0903 39.1035L82.3901 43.9342Z" fill="white"/>
<path d="M82.3901 44.2042C82.3202 44.2047 82.253 44.1773 82.2033 44.1279C82.0986 44.0225 82.0986 43.8518 82.2033 43.7463L86.8742 38.9157C86.9786 38.8154 87.1432 38.8159 87.2468 38.917C87.3505 39.018 87.3561 39.1834 87.2596 39.2913L82.5594 44.122C82.5144 44.1686 82.4544 44.1977 82.3901 44.2042Z" fill="#231F20"/>
<path d="M87.0903 43.9342L82.3901 39.1035L87.0903 43.9342Z" fill="white"/>
<path d="M87.0903 44.2043C87.0178 44.2036 86.9486 44.174 86.8977 44.1221L82.2267 39.2915C82.1768 39.2419 82.1487 39.1742 82.1487 39.1037C82.1487 39.0331 82.1768 38.9655 82.2267 38.9158C82.3315 38.8106 82.5014 38.8106 82.6062 38.9158L87.3064 43.7465C87.4079 43.8532 87.4079 44.0213 87.3064 44.128C87.2498 44.1853 87.1702 44.2134 87.0903 44.2043Z" fill="#231F20"/>
<path d="M93.8105 43.9342L98.5107 39.1035L93.8105 43.9342Z" fill="white"/>
<path d="M93.8108 44.2042C93.7409 44.2047 93.6736 44.1773 93.6239 44.1279C93.5192 44.0225 93.5192 43.8518 93.6239 43.7463L98.2949 38.9157C98.3992 38.8154 98.5638 38.8159 98.6675 38.917C98.7712 39.018 98.7768 39.1834 98.6802 39.2913L94.0034 44.122C93.9525 44.1739 93.8833 44.2034 93.8108 44.2042Z" fill="#231F20"/>
<path d="M98.5107 43.9342L93.8105 39.1035L98.5107 43.9342Z" fill="white"/>
<path d="M98.5108 44.2043C98.4382 44.2036 98.369 44.174 98.3181 44.1221L93.6471 39.2915C93.5972 39.2419 93.5691 39.1742 93.5691 39.1037C93.5691 39.0331 93.5972 38.9655 93.6471 38.9158C93.752 38.8106 93.9218 38.8106 94.0266 38.9158L98.7268 43.7465C98.8284 43.8532 98.8284 44.0213 98.7268 44.128C98.6707 44.1861 98.5907 44.2143 98.5108 44.2043Z" fill="#231F20"/>
<path d="M98.5107 43.9342L103.211 39.1035L98.5107 43.9342Z" fill="white"/>
<path d="M98.5108 44.2043C98.4409 44.2049 98.3737 44.1774 98.324 44.128C98.2224 44.0213 98.2224 43.8532 98.324 43.7465L103.024 38.9158C103.129 38.8106 103.299 38.8106 103.404 38.9158C103.454 38.9655 103.482 39.0331 103.482 39.1037C103.482 39.1742 103.454 39.2419 103.404 39.2915L98.7327 44.1221C98.6749 44.1818 98.5933 44.212 98.5108 44.2043Z" fill="#231F20"/>
<path d="M103.211 43.9342L98.5107 39.1035L103.211 43.9342Z" fill="white"/>
<path d="M103.211 44.2042C103.138 44.2034 103.069 44.1739 103.018 44.122L98.3181 39.2913C98.2216 39.1834 98.2272 39.018 98.3309 38.917C98.4345 38.8159 98.5991 38.8154 98.7035 38.9157L103.374 43.7463C103.479 43.8518 103.479 44.0225 103.374 44.1279C103.331 44.1719 103.273 44.1989 103.211 44.2042Z" fill="#231F20"/>
<path d="M103.211 43.9342L107.905 39.1035L103.211 43.9342Z" fill="white"/>
<path d="M103.211 44.204C103.141 44.2053 103.074 44.1777 103.024 44.1277C102.923 44.0211 102.923 43.8529 103.024 43.7462L107.724 38.9156C107.831 38.8322 107.982 38.8409 108.078 38.936C108.174 39.0311 108.185 39.1831 108.104 39.2912L103.433 44.1219C103.377 44.1847 103.294 44.2156 103.211 44.204Z" fill="#231F20"/>
<path d="M107.905 43.9342L103.211 39.1035L107.905 43.9342Z" fill="white"/>
<path d="M107.905 44.2038C107.835 44.2016 107.768 44.1721 107.718 44.1216L103.018 39.291C102.917 39.1863 102.917 39.02 103.018 38.9153C103.068 38.8652 103.135 38.8369 103.205 38.8369C103.275 38.8369 103.343 38.8652 103.392 38.9153L108.063 43.746C108.168 43.8514 108.168 44.0221 108.063 44.1275C108.021 44.1716 107.965 44.1987 107.905 44.2038Z" fill="#231F20"/>
<path d="M107.905 43.9342L112.605 39.1035L107.905 43.9342Z" fill="white"/>
<path d="M107.905 44.2038C107.837 44.2048 107.771 44.1772 107.724 44.1275C107.673 44.0777 107.643 44.0088 107.643 43.9368C107.643 43.8647 107.673 43.7958 107.724 43.746L112.395 38.9153C112.445 38.8652 112.512 38.8369 112.582 38.8369C112.652 38.8369 112.72 38.8652 112.769 38.9153C112.87 39.02 112.87 39.1863 112.769 39.291L108.069 44.1216C108.025 44.167 107.968 44.196 107.905 44.2038Z" fill="#231F20"/>
<path d="M112.605 43.9342L107.905 39.1035L112.605 43.9342Z" fill="white"/>
<path d="M112.605 44.2038C112.534 44.2042 112.466 44.1744 112.419 44.1216L107.748 39.291C107.696 39.2422 107.667 39.1743 107.667 39.1032C107.667 39.0321 107.696 38.9641 107.748 38.9153C107.797 38.8652 107.864 38.8369 107.934 38.8369C108.005 38.8369 108.072 38.8652 108.121 38.9153L112.821 43.746C112.923 43.8527 112.923 44.0208 112.821 44.1275C112.765 44.1856 112.685 44.2138 112.605 44.2038Z" fill="#231F20"/>
<path d="M112.605 43.9342L117.306 39.1035L112.605 43.9342Z" fill="white"/>
<path d="M112.605 44.2042C112.536 44.2047 112.468 44.1773 112.419 44.1279C112.314 44.0225 112.314 43.8518 112.419 43.7463L117.09 38.9157C117.194 38.8154 117.359 38.8159 117.462 38.917C117.566 39.018 117.571 39.1834 117.475 39.2913L112.775 44.122C112.73 44.1686 112.67 44.1977 112.605 44.2042Z" fill="#231F20"/>
<path d="M117.306 43.9342L112.605 39.1035L117.306 43.9342Z" fill="white"/>
<path d="M117.306 44.2043C117.233 44.2036 117.164 44.174 117.113 44.1221L112.442 39.2915C112.392 39.2419 112.364 39.1742 112.364 39.1037C112.364 39.0331 112.392 38.9655 112.442 38.9158C112.547 38.8106 112.717 38.8106 112.822 38.9158L117.522 43.7465C117.623 43.8532 117.623 44.0213 117.522 44.128C117.465 44.1853 117.386 44.2134 117.306 44.2043Z" fill="#231F20"/>
<path d="M117.306 43.9342L122.006 39.1035L117.306 43.9342Z" fill="white"/>
<path d="M117.306 44.2038C117.235 44.205 117.168 44.1775 117.119 44.1275C117.017 44.0208 117.017 43.8527 117.119 43.746L121.79 38.9153C121.839 38.8652 121.906 38.8369 121.976 38.8369C122.047 38.8369 122.114 38.8652 122.163 38.9153C122.215 38.9641 122.244 39.0321 122.244 39.1032C122.244 39.1743 122.215 39.2422 122.163 39.291L117.492 44.1216C117.443 44.1721 117.376 44.2016 117.306 44.2038Z" fill="#231F20"/>
<path d="M122.006 43.9342L117.306 39.1035L122.006 43.9342Z" fill="white"/>
<path d="M122.029 44.2042C121.957 44.2034 121.887 44.1739 121.837 44.122L117.166 39.2913C117.069 39.1834 117.075 39.018 117.178 38.917C117.282 38.8159 117.447 38.8154 117.551 38.9157L122.222 43.7463C122.274 43.7962 122.303 43.8651 122.303 43.9371C122.303 44.0091 122.274 44.078 122.222 44.1279C122.172 44.1807 122.101 44.2086 122.029 44.2042Z" fill="#231F20"/>
<path d="M122.006 43.9342L126.7 39.1035L122.006 43.9342Z" fill="white"/>
<path d="M122.029 44.2038C121.959 44.205 121.892 44.1775 121.842 44.1275C121.738 44.0221 121.738 43.8514 121.842 43.746L126.542 38.9153C126.592 38.8652 126.659 38.8369 126.729 38.8369C126.799 38.8369 126.867 38.8652 126.916 38.9153C127.017 39.02 127.017 39.1863 126.916 39.291L122.245 44.1216C122.189 44.1797 122.11 44.2097 122.029 44.2038Z" fill="#231F20"/>
<path d="M126.7 43.9342L122.006 39.1035L126.7 43.9342Z" fill="white"/>
<path d="M126.7 44.204C126.629 44.2045 126.561 44.1746 126.513 44.1219L121.813 39.2912C121.732 39.1831 121.743 39.0311 121.839 38.936C121.935 38.8409 122.086 38.8322 122.193 38.9156L126.864 43.7462C126.965 43.8529 126.965 44.0211 126.864 44.1277C126.82 44.1722 126.762 44.1993 126.7 44.204Z" fill="#231F20"/>
<path d="M132.113 39.1855H48.8877C48.817 39.1871 48.7487 39.16 48.6981 39.1103C48.6476 39.0605 48.6191 38.9925 48.6191 38.9214C48.6191 38.7723 48.7394 38.6514 48.8877 38.6514H132.113C132.261 38.6514 132.381 38.7723 132.381 38.9214C132.381 38.9925 132.353 39.0605 132.302 39.1103C132.252 39.16 132.183 39.1871 132.113 39.1855Z" fill="#231F20"/>
<rect x="52.2742" y="85.1211" width="76.4462" height="2.67065" fill="white"/>
<path fill-rule="evenodd" clip-rule="evenodd" d="M52.274 88.0436H128.726C128.869 88.0437 128.986 87.929 128.989 87.7854V85.1089C128.989 84.963 128.871 84.8447 128.726 84.8447H52.274C52.1289 84.8447 52.0112 84.963 52.0112 85.1089V87.7795C52.0112 87.9254 52.1289 88.0436 52.274 88.0436ZM128.452 87.5271H52.5484V85.3906H128.452V87.5271Z" fill="#231F20"/>
<path d="M128.726 87.7969V103.645H119.571C119.571 103.645 113.318 89.4404 90.5002 89.4404C67.6825 89.4404 61.4293 103.645 61.4293 103.645H52.2742V87.7969H128.726Z" fill="white"/>
<path fill-rule="evenodd" clip-rule="evenodd" d="M119.571 103.892H128.726C128.874 103.892 128.995 103.771 128.995 103.622V87.7739C128.995 87.7023 128.966 87.6336 128.916 87.583C128.866 87.5324 128.797 87.5039 128.726 87.5039H52.274C52.2027 87.5039 52.1344 87.5324 52.084 87.583C52.0337 87.6336 52.0054 87.7023 52.0054 87.7739V103.622C52.0054 103.693 52.0337 103.762 52.084 103.813C52.1344 103.863 52.2027 103.892 52.274 103.892H61.429C61.5338 103.889 61.6284 103.828 61.6743 103.733C61.7327 103.592 68.1377 89.6815 90.5 89.6815C112.862 89.6815 119.267 103.592 119.326 103.733C119.372 103.828 119.466 103.889 119.571 103.892ZM128.452 103.358H119.74V103.381C118.946 101.802 111.922 89.1533 90.5058 89.1533C69.0894 89.1533 62.0596 101.785 61.2656 103.363H52.5484V88.0439H128.452V103.358Z" fill="#231F20"/>
<rect x="49.3489" y="43.9336" width="82.3025" height="2.44761" fill="#231F20"/>
<path fill-rule="evenodd" clip-rule="evenodd" d="M49.3256 46.6752H131.651C131.731 46.6753 131.807 46.6427 131.862 46.5851C131.917 46.5275 131.947 46.4498 131.943 46.37V43.9341C131.943 43.772 131.813 43.6406 131.651 43.6406H49.3256C49.1644 43.6406 49.0337 43.772 49.0337 43.9341V46.3817C49.0337 46.5438 49.1644 46.6752 49.3256 46.6752ZM131.371 46.0882H49.6409L49.6292 44.2276H131.371V46.0882Z" fill="#231F20"/>
<path d="M87.1895 37.9356L90.5 35.6406L93.8105 37.9356V43.9343H87.1895V37.9356Z" fill="#E7816B"/>
<path fill-rule="evenodd" clip-rule="evenodd" d="M86.9209 43.9336C86.9209 44.0827 87.0411 44.2036 87.1895 44.2036H93.8106C93.9589 44.2036 94.0792 44.0827 94.0792 43.9336V37.9349C94.0793 37.8457 94.0356 37.7623 93.9624 37.7119L90.6518 35.4169C90.559 35.3584 90.4411 35.3584 90.3482 35.4169L87.0377 37.7119C86.9645 37.7623 86.9208 37.8457 86.9209 37.9349V43.9336ZM93.5478 38.0758V43.6695H87.4522V38.0758L90.5 35.9627L93.5478 38.0758Z" fill="#231F20"/>
<path d="M87.1896 42.6312C87.1189 42.6328 87.0506 42.6056 87.0001 42.5559C86.9495 42.5062 86.921 42.4381 86.921 42.3671V36.3331C86.9055 36.2283 86.9525 36.124 87.0411 36.0665C87.1298 36.0091 87.2436 36.0091 87.3323 36.0665C87.4209 36.124 87.4679 36.2283 87.4524 36.3331V42.3671C87.4524 42.5129 87.3347 42.6312 87.1896 42.6312Z" fill="#231F20"/>
<path d="M93.8107 42.6312C93.6656 42.6312 93.548 42.5129 93.548 42.3671V36.3331C93.5325 36.2283 93.5795 36.124 93.6681 36.0665C93.7567 36.0091 93.8706 36.0091 93.9592 36.0665C94.0479 36.124 94.0948 36.2283 94.0793 36.3331V42.3671C94.0793 42.4381 94.0509 42.5062 94.0003 42.5559C93.9498 42.6056 93.8814 42.6328 93.8107 42.6312Z" fill="#231F20"/>
<path d="M90.5002 35.9101C90.3532 35.907 90.2347 35.7879 90.2316 35.6401V33.9731C90.2316 33.824 90.3519 33.7031 90.5002 33.7031C90.6485 33.7031 90.7688 33.824 90.7688 33.9731V35.6401C90.7657 35.7879 90.6472 35.907 90.5002 35.9101Z" fill="#231F20"/>
<path d="M0.321248 85.1086V69.4309C19.0051 66.3025 37.689 43.3936 37.689 43.3936L36.6614 47.9073C36.6614 47.9073 17.633 69.5249 0.30957 71.5381" fill="#231F20"/>
<path fill-rule="evenodd" clip-rule="evenodd" d="M0.0292969 85.1203C0.0292969 85.2824 0.160001 85.4138 0.321232 85.4138C0.400725 85.4139 0.476806 85.3813 0.531903 85.3237C0.587 85.2661 0.616348 85.1884 0.613168 85.1086V71.8023C17.7848 69.6188 36.7022 48.324 36.8891 48.1068C36.9247 48.0717 36.9491 48.0268 36.9591 47.9777L37.9809 43.464C38.0075 43.3328 37.9459 43.1996 37.8291 43.1353C37.7057 43.0777 37.559 43.1115 37.4729 43.2175C37.4711 43.2197 37.4676 43.224 37.4623 43.2303C36.923 43.8793 18.4585 66.1035 0.274523 69.1434C0.133032 69.1689 0.0298597 69.2923 0.0292969 69.4368V71.5381V85.1203ZM0.613168 71.2036V69.6775C16.9791 66.7897 33.4326 48.776 37.1518 44.4912L36.4045 47.7664C35.3243 48.9755 17.1192 69.0553 0.613168 71.2036Z" fill="#231F20"/>
<path d="M5.97308 85.3904C5.90237 85.3904 5.83464 85.3618 5.7852 85.311C5.73575 85.2601 5.70877 85.1914 5.71034 85.1204V70.2469C5.72991 70.1146 5.84292 70.0166 5.976 70.0166C6.10908 70.0166 6.22209 70.1146 6.24166 70.2469V85.1086C6.24661 85.1827 6.22031 85.2555 6.1692 85.3091C6.1181 85.3627 6.04692 85.3922 5.97308 85.3904Z" fill="#231F20"/>
<path d="M12.0163 85.3909C11.9446 85.3925 11.8753 85.3646 11.8246 85.3136C11.7739 85.2626 11.7461 85.193 11.7477 85.1209V67.6824C11.7673 67.5501 11.8803 67.4521 12.0134 67.4521C12.1464 67.4521 12.2594 67.5501 12.279 67.6824V85.1092C12.2839 85.1822 12.2583 85.254 12.2085 85.3074C12.1587 85.3609 12.0891 85.3911 12.0163 85.3909Z" fill="#231F20"/>
<path d="M18.3277 85.3912C18.2565 85.3912 18.1882 85.3627 18.1378 85.3121C18.0874 85.2614 18.0591 85.1928 18.0591 85.1212V63.979C18.0591 63.8299 18.1794 63.709 18.3277 63.709C18.476 63.709 18.5963 63.8299 18.5963 63.979V85.1094C18.5995 85.183 18.5726 85.2548 18.5219 85.308C18.4711 85.3612 18.401 85.3912 18.3277 85.3912Z" fill="#231F20"/>
<path d="M24.6393 85.3909C24.5686 85.3909 24.5009 85.3622 24.4515 85.3114C24.402 85.2606 24.375 85.1919 24.3766 85.1209V59.283C24.3962 59.1507 24.5092 59.0527 24.6423 59.0527C24.7753 59.0527 24.8884 59.1507 24.9079 59.283V85.1091C24.9129 85.1832 24.8866 85.256 24.8355 85.3096C24.7844 85.3632 24.7132 85.3927 24.6393 85.3909Z" fill="#231F20"/>
<path d="M44.7773 6.28655C44.6312 6.28658 44.5119 6.16924 44.5087 6.02242V0.692852C44.5087 0.543735 44.629 0.422852 44.7773 0.422852C44.9256 0.422852 45.0459 0.543735 45.0459 0.692852V6.02242C45.0427 6.16924 44.9234 6.28658 44.7773 6.28655Z" fill="#231F20"/>
<path d="M44.0298 7.43066H45.5245L52.0055 34.2194H37.5488L44.0298 7.43066Z" fill="#231F20"/>
<path fill-rule="evenodd" clip-rule="evenodd" d="M37.5547 34.5075H52.0055C52.0983 34.5098 52.1868 34.4686 52.2449 34.396C52.2992 34.3263 52.3186 34.2354 52.2975 34.1494L45.8223 7.36661C45.7947 7.23319 45.6777 7.13761 45.5421 7.1377H44.0299C43.8936 7.13922 43.7758 7.2335 43.7438 7.36661L37.2686 34.1494C37.2475 34.2354 37.2669 34.3263 37.3212 34.396C37.3781 34.4669 37.4641 34.508 37.5547 34.5075ZM51.6319 33.9205H37.9226L44.2576 7.72465H45.2969L51.6319 33.9205Z" fill="#231F20"/>
<rect x="44.0356" y="5.42383" width="1.48887" height="2.00739" fill="#231F20"/>
<path fill-rule="evenodd" clip-rule="evenodd" d="M44.059 7.72423H45.5421C45.7033 7.72423 45.834 7.59284 45.834 7.43075V5.42336C45.834 5.26128 45.7033 5.12988 45.5421 5.12988H44.059C43.8978 5.12988 43.7671 5.26128 43.7671 5.42336V7.43075C43.7671 7.59284 43.8978 7.72423 44.059 7.72423ZM45.2735 7.13727H44.3743V5.71684H45.2735V7.13727Z" fill="#231F20"/>
<path d="M47.9359 33.3396V26.9946L44.7771 21.6533L41.6184 26.9946V33.3396H38.5823V84.1172H50.972V33.3396H47.9359Z" fill="#E7816B"/>
<path fill-rule="evenodd" clip-rule="evenodd" d="M38.5882 84.3873H50.9721C51.1159 84.3842 51.2317 84.2677 51.2348 84.1232V33.3456C51.2348 33.1997 51.1172 33.0814 50.9721 33.0814H48.1987V27.0006C48.199 26.9533 48.1869 26.9067 48.1636 26.8656L45.0049 21.5243C44.9539 21.448 44.8686 21.4023 44.7772 21.4023C44.6858 21.4023 44.6005 21.448 44.5495 21.5243L41.3907 26.8656C41.3675 26.9067 41.3554 26.9533 41.3557 27.0006V33.0756H38.5882C38.5175 33.074 38.4491 33.1011 38.3986 33.1508C38.348 33.2005 38.3196 33.2686 38.3196 33.3397V84.1173C38.3196 84.2664 38.4398 84.3873 38.5882 84.3873ZM50.7035 83.8473H38.8509L38.7925 33.6097H41.5601C41.7084 33.6097 41.8286 33.4888 41.8286 33.3397V27.0651L44.748 22.1758L47.6674 27.0651V33.3397C47.6705 33.4875 47.7889 33.6066 47.9359 33.6097H50.7035V83.8473Z" fill="#231F20"/>
<path d="M50.972 38.2578H38.5881C38.4838 38.2734 38.3801 38.2262 38.3229 38.1371C38.2657 38.048 38.2657 37.9335 38.3229 37.8444C38.3801 37.7553 38.4838 37.7081 38.5881 37.7237H50.972C51.1036 37.7434 51.2011 37.857 51.2011 37.9907C51.2011 38.1245 51.1036 38.2381 50.972 38.2578Z" fill="#231F20"/>
<path d="M42.5876 47.9374H40.6316V41.5747C40.6316 41.0289 41.6125 40.1484 41.6125 40.1484C41.6125 40.1484 42.5876 41.0289 42.5876 41.5747V47.9374Z" fill="#231F20"/>
<path d="M45.7582 47.9374H43.7905V41.5747C43.7905 41.0289 44.7714 40.1484 44.7714 40.1484C44.7714 40.1484 45.7523 41.0289 45.7523 41.5747L45.7582 47.9374Z" fill="#231F20"/>
<path d="M48.9228 47.9374H46.9668V41.5747C46.9668 41.0289 47.9419 40.1484 47.9419 40.1484C47.9419 40.1484 48.9228 41.0289 48.9228 41.5747V47.9374Z" fill="#231F20"/>
<path d="M42.5876 59.87H40.6316V53.4781C40.6316 52.9381 41.6125 52.0518 41.6125 52.0518C41.6125 52.0518 42.5876 52.9381 42.5876 53.4781V59.87Z" fill="#231F20"/>
<path d="M45.7582 59.87H43.7905V53.4781C43.7905 52.9381 44.7714 52.0518 44.7714 52.0518C44.7714 52.0518 45.7523 52.9381 45.7523 53.4781L45.7582 59.87Z" fill="#231F20"/>
<path d="M48.9228 59.87H46.9668V53.4781C46.9668 52.9381 47.9419 52.0518 47.9419 52.0518C47.9419 52.0518 48.9228 52.9381 48.9228 53.4781V59.87Z" fill="#231F20"/>
<path d="M42.5876 71.7557H40.6316V65.3872C40.6316 64.8414 41.6125 63.9609 41.6125 63.9609C41.6125 63.9609 42.5876 64.8414 42.5876 65.3872V71.7557Z" fill="#231F20"/>
<path d="M45.7582 71.7557H43.7905V65.3872C43.7905 64.8414 44.7714 63.9609 44.7714 63.9609C44.7714 63.9609 45.7523 64.8414 45.7523 65.3872L45.7582 71.7557Z" fill="#231F20"/>
<path d="M48.9228 71.7557H46.9668V65.3872C46.9668 64.8414 47.9419 63.9609 47.9419 63.9609C47.9419 63.9609 48.9228 64.8414 48.9228 65.3872V71.7557Z" fill="#231F20"/>
<path d="M50.5284 75.2715H39.0261C38.8801 75.2715 38.7607 75.1542 38.7576 75.0074C38.7607 74.8595 38.8791 74.7405 39.0261 74.7374H50.5284C50.6754 74.7405 50.7939 74.8595 50.797 75.0074C50.7938 75.1542 50.6745 75.2715 50.5284 75.2715Z" fill="#231F20"/>
<path d="M36.5271 13.6113L39.4815 24.922H33.5728L36.5271 13.6113Z" fill="#231F20"/>
<path fill-rule="evenodd" clip-rule="evenodd" d="M33.5727 25.2397H39.4815C39.5672 25.2344 39.6462 25.1915 39.6975 25.1223C39.7546 25.0517 39.7741 24.9577 39.7501 24.8699L36.7957 13.5593C36.7585 13.4282 36.6393 13.3379 36.5038 13.3379C36.3682 13.3379 36.2491 13.4282 36.2118 13.5593L33.2925 24.8699C33.2687 24.9568 33.2859 25.0499 33.3392 25.1223C33.3955 25.1948 33.4813 25.2379 33.5727 25.2397ZM39.1195 24.6528H33.9522L36.5446 14.786L39.1195 24.6528Z" fill="#231F20"/>
<path d="M34.6353 24.9229L34.7579 43.7759L35.8847 46.7929V84.1174H39.5106V46.4113L38.6289 44.4333V24.9229H34.6353Z" fill="#E7816B"/>
<path fill-rule="evenodd" clip-rule="evenodd" d="M35.8848 84.3869H39.5107C39.6554 84.3807 39.7705 84.2625 39.7734 84.1169V46.4108C39.7794 46.3759 39.7794 46.3401 39.7734 46.3052L38.9151 44.3741V24.9223C38.9151 24.7732 38.7949 24.6523 38.6465 24.6523H34.6529C34.5831 24.6524 34.5161 24.6798 34.466 24.7286C34.4144 24.7798 34.385 24.8495 34.3843 24.9223L34.5127 43.7754C34.5071 43.8064 34.5071 43.8382 34.5127 43.8693L35.6162 46.8393V84.1169C35.6193 84.2647 35.7378 84.3838 35.8848 84.3869ZM39.2421 83.8469H36.1534L36.1592 46.7865C36.1643 46.7554 36.1643 46.7237 36.1592 46.6926L35.0499 43.7226L34.9273 25.1865H38.3838V44.4328C38.3784 44.4698 38.3784 44.5073 38.3838 44.5443L39.2421 46.4695V83.8469Z" fill="#231F20"/>
<path d="M38.6289 37.4424H34.717C34.6127 37.458 34.509 37.4107 34.4518 37.3216C34.3946 37.2326 34.3946 37.1181 34.4518 37.029C34.509 36.9399 34.6127 36.8927 34.717 36.9082H38.6289C38.7333 36.8927 38.837 36.9399 38.8941 37.029C38.9513 37.1181 38.9513 37.2326 38.8941 37.3216C38.837 37.4107 38.7333 37.458 38.6289 37.4424Z" fill="#231F20"/>
<path d="M39.5106 47.0566H35.8847C35.7804 47.0722 35.6767 47.025 35.6195 46.9359C35.5624 46.8468 35.5624 46.7323 35.6195 46.6432C35.6767 46.5541 35.7804 46.5069 35.8847 46.5225H39.5106C39.6149 46.5069 39.7186 46.5541 39.7758 46.6432C39.8329 46.7323 39.8329 46.8468 39.7758 46.9359C39.7186 47.025 39.6149 47.0722 39.5106 47.0566Z" fill="#231F20"/>
<path d="M53.0271 13.6113L50.0728 24.922H55.9815L53.0271 13.6113Z" fill="#231F20"/>
<path fill-rule="evenodd" clip-rule="evenodd" d="M49.8451 25.1223C49.899 25.1946 49.983 25.2379 50.0728 25.2397H55.9816C56.0792 25.2435 56.1726 25.1998 56.2326 25.1223C56.2872 25.0505 56.3065 24.9577 56.2852 24.8699L53.3308 13.5593C53.2936 13.4282 53.1744 13.3379 53.0389 13.3379C52.9033 13.3379 52.7842 13.4282 52.7469 13.5593L49.7926 24.8699C49.7685 24.9577 49.7881 25.0517 49.8451 25.1223ZM53.0272 14.786L55.6021 24.6528H50.4523L53.0272 14.786Z" fill="#231F20"/>
<path d="M54.919 24.9229L54.7964 43.7759L53.6695 46.7929V84.1174H50.0437V46.4113L50.9253 44.4333V24.9229H54.919Z" fill="#E7816B"/>
<path fill-rule="evenodd" clip-rule="evenodd" d="M50.0436 84.3874H53.6694C53.8119 84.3783 53.9236 84.2609 53.9263 84.1174V46.8398L55.0357 43.8698C55.0385 43.8386 55.0385 43.8071 55.0357 43.7759L55.1641 24.9229C55.1675 24.8503 55.1403 24.7796 55.0892 24.7282C55.038 24.6768 54.9678 24.6495 54.8956 24.6529H50.9019C50.7535 24.6529 50.6333 24.7737 50.6333 24.9229V44.3746L49.775 46.3057C49.769 46.3406 49.769 46.3764 49.775 46.4113V84.1174C49.7781 84.2652 49.8966 84.3843 50.0436 84.3874ZM53.4008 83.8474H50.3122L50.318 46.47L51.1763 44.5448C51.1846 44.5081 51.1846 44.47 51.1763 44.4333V25.187H54.6328L54.5102 43.7231L53.4008 46.6931C53.3958 46.7242 53.3958 46.7559 53.4008 46.787V83.8474Z" fill="#231F20"/>
<path d="M54.8372 37.4424H50.9253C50.8209 37.458 50.7172 37.4107 50.6601 37.3216C50.6029 37.2326 50.6029 37.1181 50.6601 37.029C50.7172 36.9399 50.8209 36.8927 50.9253 36.9082H54.8372C54.9415 36.8927 55.0452 36.9399 55.1024 37.029C55.1596 37.1181 55.1596 37.2326 55.1024 37.3216C55.0452 37.4107 54.9415 37.458 54.8372 37.4424Z" fill="#231F20"/>
<path d="M53.6695 47.0566H50.0437C49.9394 47.0722 49.8356 47.025 49.7785 46.9359C49.7213 46.8468 49.7213 46.7323 49.7785 46.6432C49.8356 46.5541 49.9394 46.5069 50.0437 46.5225H53.6695C53.7738 46.5069 53.8776 46.5541 53.9347 46.6432C53.9919 46.7323 53.9919 46.8468 53.9347 46.9359C53.8776 47.025 53.7738 47.0722 53.6695 47.0566Z" fill="#231F20"/>
<path d="M36.527 14.3454C36.3787 14.3454 36.2585 14.2245 36.2585 14.0754V11.4399C36.2585 11.2908 36.3787 11.1699 36.527 11.1699C36.6754 11.1699 36.7956 11.2908 36.7956 11.4399V14.0871C36.7894 14.2316 36.6709 14.3455 36.527 14.3454Z" fill="#231F20"/>
<path d="M53.0273 14.345C52.9566 14.345 52.8889 14.3164 52.8394 14.2656C52.79 14.2148 52.763 14.1461 52.7646 14.075V11.4396C52.749 11.3347 52.796 11.2304 52.8847 11.173C52.9733 11.1155 53.0872 11.1155 53.1758 11.173C53.2644 11.2304 53.3114 11.3347 53.2959 11.4396V14.0868C53.2943 14.1568 53.2652 14.2234 53.2148 14.2718C53.1644 14.3203 53.097 14.3466 53.0273 14.345Z" fill="#231F20"/>
<rect x="31.8269" y="84.1172" width="25.8772" height="19.5339" fill="#E7816B"/>
<path fill-rule="evenodd" clip-rule="evenodd" d="M31.827 103.891H57.71C57.8476 103.892 57.9636 103.788 57.9785 103.651V84.1167C57.9754 83.9689 57.857 83.8498 57.71 83.8467H31.827C31.6809 83.8499 31.5642 83.9698 31.5642 84.1167V103.627C31.5642 103.773 31.6818 103.891 31.827 103.891ZM57.4589 103.381H32.113V84.3867H57.4589V103.381Z" fill="#231F20"/>
<path d="M45.7582 34.2137H43.7905V27.8511C43.7905 27.3052 44.7714 26.4248 44.7714 26.4248C44.7714 26.4248 45.7523 27.3052 45.7523 27.8511L45.7582 34.2137Z" fill="#231F20"/>
<path fill-rule="evenodd" clip-rule="evenodd" d="M43.7905 34.5074H45.7581C45.9171 34.5042 46.0442 34.3737 46.0442 34.2139V27.8513C46.0442 27.2056 45.1451 26.3663 44.9641 26.2078C44.8549 26.1078 44.6879 26.1078 44.5787 26.2078C44.3977 26.3663 43.4985 27.2056 43.4985 27.8513V34.2139C43.4985 34.376 43.6292 34.5074 43.7905 34.5074ZM45.4662 33.9204H44.0882V27.8513C44.2211 27.4541 44.4593 27.101 44.7772 26.83C45.0951 27.101 45.3333 27.4541 45.4662 27.8513V33.9204Z" fill="#231F20"/>
<rect x="0.321289" y="85.1211" width="31.5057" height="2.67065" fill="white"/>
<path fill-rule="evenodd" clip-rule="evenodd" d="M0.297898 88.0437H31.8269C31.8966 88.0453 31.9641 88.0189 32.0144 87.9705C32.0648 87.9221 32.094 87.8555 32.0955 87.7854V85.1089C32.0955 85.0378 32.067 84.9698 32.0165 84.92C31.966 84.8703 31.8976 84.8432 31.8269 84.8448H0.297898C0.228215 84.8448 0.161385 84.8726 0.112112 84.9222C0.0628379 84.9717 0.0351562 85.0389 0.0351562 85.1089V87.7796C0.0351562 87.9254 0.15279 88.0437 0.297898 88.0437ZM31.5642 87.5272H0.583995V85.3907H31.5642V87.5272Z" fill="#231F20"/>
<rect x="0.321289" y="87.7969" width="31.5057" height="15.8537" fill="white"/>
<path fill-rule="evenodd" clip-rule="evenodd" d="M0.297779 103.892H31.8268C31.8975 103.893 31.9658 103.866 32.0164 103.817C32.0669 103.767 32.0954 103.699 32.0954 103.628V87.7799C32.097 87.7078 32.0692 87.6382 32.0185 87.5872C31.9678 87.5362 31.8985 87.5083 31.8268 87.5099H0.297779C0.227072 87.5099 0.159342 87.5385 0.109897 87.5893C0.0604521 87.6401 0.0334656 87.7088 0.0350369 87.7799V103.628C0.0350369 103.774 0.15267 103.892 0.297779 103.892ZM31.5641 103.381H0.583876V88.044H31.5641V103.381Z" fill="#231F20"/>
<path d="M30.9452 85.391C30.8735 85.3927 30.8043 85.3647 30.7536 85.3137C30.7028 85.2628 30.6751 85.1931 30.6767 85.121V53.7247C30.6612 53.6199 30.7081 53.5156 30.7968 53.4581C30.8854 53.4007 30.9993 53.4007 31.0879 53.4581C31.1765 53.5156 31.2235 53.6199 31.208 53.7247V85.1093C31.2128 85.1824 31.1873 85.2542 31.1375 85.3076C31.0877 85.361 31.0181 85.3912 30.9452 85.391Z" fill="#231F20"/>
<path d="M180.679 85.1086V69.4309C161.995 66.3025 143.311 43.3936 143.311 43.3936L144.339 47.9073C144.339 47.9073 163.367 69.5249 180.691 71.5381" fill="#231F20"/>
<path fill-rule="evenodd" clip-rule="evenodd" d="M180.387 85.1204C180.387 85.2825 180.518 85.4138 180.679 85.4138C180.764 85.4225 180.847 85.3937 180.909 85.3351C180.971 85.2765 181.004 85.1938 181 85.1086V71.5088V69.4075C181 69.263 180.896 69.1396 180.755 69.1141C162.571 66.0742 144.106 43.8499 143.567 43.201C143.562 43.1947 143.558 43.1904 143.557 43.1882C143.47 43.0822 143.324 43.0484 143.2 43.106C143.084 43.1703 143.022 43.3035 143.049 43.4347L144.041 47.9719C144.051 48.021 144.076 48.0659 144.111 48.101C144.298 48.3182 163.216 69.613 180.387 71.7965V85.1204ZM180.387 71.2036C163.864 69.0554 145.676 48.9756 144.596 47.7665L143.849 44.4912C147.568 48.776 164.039 66.7897 180.387 69.6775V71.2036Z" fill="#231F20"/>
<path d="M175.027 85.3904C174.955 85.392 174.886 85.3641 174.835 85.3131C174.785 85.2621 174.757 85.1925 174.758 85.1204V70.2469C174.778 70.1146 174.891 70.0166 175.024 70.0166C175.157 70.0166 175.27 70.1146 175.29 70.2469V85.1086C175.295 85.1817 175.269 85.2535 175.219 85.3069C175.169 85.3603 175.1 85.3905 175.027 85.3904Z" fill="#231F20"/>
<path d="M168.984 85.3909C168.914 85.3864 168.849 85.3541 168.803 85.3013C168.757 85.2484 168.734 85.1793 168.739 85.1092V67.6824C168.758 67.5501 168.871 67.4521 169.005 67.4521C169.138 67.4521 169.251 67.5501 169.27 67.6824V85.1092C169.276 85.1865 169.247 85.2623 169.192 85.3166C169.137 85.3708 169.061 85.398 168.984 85.3909Z" fill="#231F20"/>
<path d="M162.672 85.3912C162.601 85.3912 162.533 85.3627 162.483 85.3121C162.432 85.2614 162.404 85.1928 162.404 85.1212V63.979C162.404 63.8299 162.524 63.709 162.672 63.709C162.821 63.709 162.941 63.8299 162.941 63.979V85.1094C162.944 85.183 162.917 85.2548 162.867 85.308C162.816 85.3612 162.746 85.3912 162.672 85.3912Z" fill="#231F20"/>
<path d="M156.361 85.3909C156.289 85.3925 156.22 85.3646 156.169 85.3136C156.118 85.2626 156.091 85.193 156.092 85.1209V59.283C156.112 59.1507 156.225 59.0527 156.358 59.0527C156.491 59.0527 156.604 59.1507 156.623 59.283V85.1091C156.628 85.1822 156.603 85.254 156.553 85.3074C156.503 85.3608 156.434 85.391 156.361 85.3909Z" fill="#231F20"/>
<path d="M136.223 6.28655C136.077 6.28658 135.958 6.16924 135.955 6.02242V0.692852C135.955 0.543735 136.075 0.422852 136.223 0.422852C136.371 0.422852 136.492 0.543735 136.492 0.692852V6.02242C136.488 6.16924 136.369 6.28658 136.223 6.28655Z" fill="#231F20"/>
<path d="M136.97 7.43066H135.47L128.995 34.2194H143.451L136.97 7.43066Z" fill="#231F20"/>
<path fill-rule="evenodd" clip-rule="evenodd" d="M128.995 34.5075H143.446C143.536 34.508 143.622 34.4669 143.679 34.396C143.733 34.3263 143.753 34.2354 143.732 34.1494L137.256 7.36661C137.224 7.2335 137.107 7.13922 136.97 7.1377H135.47C135.334 7.13761 135.217 7.23319 135.19 7.36661L128.714 34.1494C128.693 34.2354 128.713 34.3263 128.767 34.396C128.823 34.4653 128.906 34.5062 128.995 34.5075ZM143.078 33.9205H129.368L135.703 7.72465H136.743L143.078 33.9205Z" fill="#231F20"/>
<rect x="136.965" y="7.43652" width="1.48887" height="2.00739" transform="rotate(-180 136.965 7.43652)" fill="#231F20"/>
<path fill-rule="evenodd" clip-rule="evenodd" d="M135.458 7.72423H136.965C137.117 7.71196 137.234 7.58409 137.233 7.43075V5.42336C137.233 5.26128 137.102 5.12988 136.941 5.12988H135.458C135.297 5.12988 135.166 5.26128 135.166 5.42336V7.43075C135.166 7.59284 135.297 7.72423 135.458 7.72423ZM136.696 7.13727H135.797V5.71684H136.696V7.13727Z" fill="#231F20"/>
<path d="M133.064 33.3396V26.9946L136.223 21.6533L139.382 26.9946V33.3396H142.418V84.1172H130.028V33.3396H133.064Z" fill="#E7816B"/>
<path fill-rule="evenodd" clip-rule="evenodd" d="M130.028 84.3873H142.412C142.558 84.3873 142.677 84.27 142.681 84.1232V33.3456C142.681 33.2745 142.652 33.2064 142.602 33.1567C142.551 33.107 142.483 33.0799 142.412 33.0814H139.644V27.0006C139.645 26.9533 139.633 26.9067 139.609 26.8656L136.451 21.5243C136.4 21.448 136.314 21.4023 136.223 21.4023C136.132 21.4023 136.046 21.448 135.995 21.5243L132.837 26.8656C132.813 26.9067 132.801 26.9533 132.802 27.0006V33.0756H130.028C129.883 33.0756 129.765 33.1938 129.765 33.3397V84.1173C129.765 84.2642 129.882 84.3841 130.028 84.3873ZM142.149 83.8473H130.297V33.6097H133.064C133.211 33.6066 133.33 33.4875 133.333 33.3397V27.0651L136.223 22.1758L139.113 27.0651V33.3397C139.113 33.4888 139.233 33.6097 139.382 33.6097H142.149V83.8473Z" fill="#231F20"/>
<path d="M142.412 38.2578H130.028C129.897 38.2381 129.799 38.1245 129.799 37.9907C129.799 37.857 129.897 37.7434 130.028 37.7237H142.412C142.516 37.7081 142.62 37.7553 142.677 37.8444C142.734 37.9335 142.734 38.048 142.677 38.1371C142.62 38.2262 142.516 38.2734 142.412 38.2578Z" fill="#231F20"/>
<path d="M138.413 47.9374H140.369V41.5747C140.369 41.0289 139.388 40.1484 139.388 40.1484C139.388 40.1484 138.413 41.0289 138.413 41.5747V47.9374Z" fill="#231F20"/>
<path d="M135.242 47.9374H137.21V41.5747C137.21 41.0289 136.229 40.1484 136.229 40.1484C136.229 40.1484 135.248 41.0289 135.248 41.5747L135.242 47.9374Z" fill="#231F20"/>
<path d="M132.078 47.9374H134.034V41.5747C134.034 41.0289 133.059 40.1484 133.059 40.1484C133.059 40.1484 132.078 41.0289 132.078 41.5747V47.9374Z" fill="#231F20"/>
<path d="M138.413 59.87H140.369V53.4781C140.369 52.9381 139.388 52.0518 139.388 52.0518C139.388 52.0518 138.413 52.9381 138.413 53.4781V59.87Z" fill="#231F20"/>
<path d="M135.242 59.87H137.21V53.4781C137.21 52.9381 136.229 52.0518 136.229 52.0518C136.229 52.0518 135.248 52.9381 135.248 53.4781L135.242 59.87Z" fill="#231F20"/>
<path d="M132.078 59.87H134.034V53.4781C134.034 52.9381 133.059 52.0518 133.059 52.0518C133.059 52.0518 132.078 52.9381 132.078 53.4781V59.87Z" fill="#231F20"/>
<path d="M138.413 71.7557H140.369V65.3872C140.369 64.8414 139.388 63.9609 139.388 63.9609C139.388 63.9609 138.413 64.8414 138.413 65.3872V71.7557Z" fill="#231F20"/>
<path d="M135.242 71.7557H137.21V65.3872C137.21 64.8414 136.229 63.9609 136.229 63.9609C136.229 63.9609 135.248 64.8414 135.248 65.3872L135.242 71.7557Z" fill="#231F20"/>
<path d="M132.078 71.7557H134.034V65.3872C134.034 64.8414 133.059 63.9609 133.059 63.9609C133.059 63.9609 132.078 64.8414 132.078 65.3872V71.7557Z" fill="#231F20"/>
<path d="M141.49 50.4785H130.98C130.833 50.4754 130.715 50.3563 130.711 50.2085C130.715 50.0617 130.834 49.9443 130.98 49.9444H141.49C141.636 49.9443 141.755 50.0617 141.758 50.2085C141.755 50.3563 141.637 50.4754 141.49 50.4785Z" fill="#231F20"/>
<path d="M141.49 62.6113H130.98C130.876 62.6269 130.772 62.5797 130.715 62.4906C130.658 62.4015 130.658 62.287 130.715 62.1979C130.772 62.1088 130.876 62.0616 130.98 62.0772H141.49C141.594 62.0616 141.698 62.1088 141.755 62.1979C141.812 62.287 141.812 62.4015 141.755 62.4906C141.698 62.5797 141.594 62.6269 141.49 62.6113Z" fill="#231F20"/>
<path d="M141.974 75.2715H130.472C130.326 75.2715 130.207 75.1542 130.203 75.0074C130.206 74.8595 130.325 74.7405 130.472 74.7374H141.974C142.121 74.7405 142.24 74.8595 142.243 75.0074C142.24 75.1542 142.12 75.2715 141.974 75.2715Z" fill="#231F20"/>
<path d="M144.473 13.6113L141.519 24.922H147.428L144.473 13.6113Z" fill="#231F20"/>
<path fill-rule="evenodd" clip-rule="evenodd" d="M141.519 25.2397H147.428C147.527 25.2362 147.619 25.1835 147.673 25.0989C147.726 25.0264 147.743 24.9334 147.72 24.8465L144.8 13.5358C144.763 13.4048 144.644 13.3145 144.508 13.3145C144.373 13.3145 144.254 13.4048 144.216 13.5358L141.239 24.87C141.215 24.9577 141.234 25.0517 141.291 25.1224C141.345 25.1946 141.429 25.2379 141.519 25.2397ZM147.031 24.6528H141.881L144.456 14.7861L147.031 24.6528Z" fill="#231F20"/>
<path d="M146.365 24.9229L146.242 43.7759L145.115 46.7929V84.1174H141.49V46.4113L142.371 44.4333V24.9229H146.365Z" fill="#E7816B"/>
<path fill-rule="evenodd" clip-rule="evenodd" d="M141.49 84.3869H145.115C145.262 84.3838 145.381 84.2647 145.384 84.1169V46.8393L146.482 43.8693C146.487 43.8382 146.487 43.8064 146.482 43.7754L146.61 24.9223C146.609 24.8495 146.58 24.7798 146.528 24.7286C146.478 24.6798 146.411 24.6524 146.342 24.6523H142.348C142.2 24.6523 142.079 24.7732 142.079 24.9223V44.3741L141.221 46.3052C141.215 46.3401 141.215 46.3759 141.221 46.4108V84.1169C141.224 84.2647 141.343 84.3838 141.49 84.3869ZM144.847 83.8469H141.758L141.782 46.4695L142.64 44.5443C142.645 44.5073 142.645 44.4698 142.64 44.4328V25.1865H146.079L145.956 43.7226L144.847 46.6926C144.842 46.7237 144.842 46.7554 144.847 46.7865V83.8469Z" fill="#231F20"/>
<path d="M146.283 37.4424H142.371C142.267 37.458 142.163 37.4107 142.106 37.3216C142.049 37.2326 142.049 37.1181 142.106 37.029C142.163 36.9399 142.267 36.8927 142.371 36.9082H146.283C146.388 36.8927 146.491 36.9399 146.548 37.029C146.606 37.1181 146.606 37.2326 146.548 37.3216C146.491 37.4107 146.388 37.458 146.283 37.4424Z" fill="#231F20"/>
<path d="M145.115 47.0566H141.489C141.385 47.0722 141.281 47.025 141.224 46.9359C141.167 46.8468 141.167 46.7323 141.224 46.6432C141.281 46.5541 141.385 46.5069 141.489 46.5225H145.115C145.22 46.5069 145.323 46.5541 145.381 46.6432C145.438 46.7323 145.438 46.8468 145.381 46.9359C145.323 47.025 145.22 47.0722 145.115 47.0566Z" fill="#231F20"/>
<path d="M127.973 13.6113L130.927 24.922H125.019L127.973 13.6113Z" fill="#231F20"/>
<path fill-rule="evenodd" clip-rule="evenodd" d="M124.785 25.1223C124.841 25.1948 124.927 25.2379 125.019 25.2397H130.927C131.023 25.2435 131.115 25.1996 131.173 25.1223C131.23 25.0517 131.249 24.9577 131.225 24.8699L128.271 13.5593C128.234 13.4282 128.114 13.3379 127.979 13.3379C127.843 13.3379 127.724 13.4282 127.687 13.5593L124.733 24.8699C124.711 24.9577 124.731 25.0505 124.785 25.1223ZM127.973 14.786L130.548 24.6528H125.398L127.973 14.786Z" fill="#231F20"/>
<path d="M126.081 24.9229L126.204 43.7759L127.331 46.7929V84.1174H130.957V46.4113L130.075 44.4333V24.9229H126.081Z" fill="#E7816B"/>
<path fill-rule="evenodd" clip-rule="evenodd" d="M127.331 84.3874H130.956C131.099 84.3783 131.211 84.2609 131.213 84.1174V46.4113C131.219 46.3764 131.219 46.3406 131.213 46.3057L130.355 44.3746V24.9229C130.355 24.7737 130.235 24.6529 130.087 24.6529H126.093C126.021 24.6495 125.95 24.6768 125.899 24.7282C125.848 24.7796 125.821 24.8503 125.824 24.9229L125.953 43.7759C125.95 43.8071 125.95 43.8386 125.953 43.8698L127.062 46.8398V84.1174C127.065 84.2652 127.184 84.3843 127.331 84.3874ZM130.688 83.8474H127.599L127.582 46.787C127.587 46.7559 127.587 46.7242 127.582 46.6931L126.472 43.7231L126.35 25.187H129.83V44.4333C129.821 44.47 129.821 44.5081 129.83 44.5448L130.688 46.47V83.8474Z" fill="#231F20"/>
<path d="M130.075 37.4423H126.163C126.059 37.4579 125.955 37.4107 125.898 37.3216C125.841 37.2325 125.841 37.118 125.898 37.0289C125.955 36.9399 126.059 36.8926 126.163 36.9082H130.075C130.179 36.8926 130.283 36.9399 130.34 37.0289C130.397 37.118 130.397 37.2325 130.34 37.3216C130.283 37.4107 130.179 37.4579 130.075 37.4423Z" fill="#231F20"/>
<path d="M130.957 47.0566H127.331C127.226 47.0722 127.123 47.025 127.066 46.9359C127.008 46.8468 127.008 46.7323 127.066 46.6432C127.123 46.5541 127.226 46.5069 127.331 46.5225H130.957C131.061 46.5069 131.165 46.5541 131.222 46.6432C131.279 46.7323 131.279 46.8468 131.222 46.9359C131.165 47.025 131.061 47.0722 130.957 47.0566Z" fill="#231F20"/>
<path d="M144.473 14.3454C144.334 14.3394 144.222 14.2272 144.216 14.0871V11.4399C144.216 11.2908 144.336 11.1699 144.485 11.1699C144.633 11.1699 144.753 11.2908 144.753 11.4399V14.0871C144.75 14.1587 144.719 14.2262 144.667 14.2747C144.614 14.3231 144.544 14.3485 144.473 14.3454Z" fill="#231F20"/>
<path d="M127.973 14.345C127.901 14.3466 127.832 14.3187 127.781 14.2677C127.73 14.2167 127.703 14.1471 127.704 14.075V11.4396C127.689 11.3347 127.736 11.2304 127.824 11.173C127.913 11.1155 128.027 11.1155 128.115 11.173C128.204 11.2304 128.251 11.3347 128.236 11.4396V14.0868C128.232 14.2303 128.116 14.3451 127.973 14.345Z" fill="#231F20"/>
<rect x="123.29" y="84.1172" width="25.8772" height="19.5339" fill="#E7816B"/>
<path fill-rule="evenodd" clip-rule="evenodd" d="M123.29 103.891H149.173C149.31 103.892 149.424 103.787 149.436 103.651V84.1167C149.436 83.9698 149.319 83.8499 149.173 83.8467H123.29C123.143 83.8498 123.025 83.9689 123.022 84.1167V103.627C123.025 103.774 123.144 103.891 123.29 103.891ZM148.887 103.357H123.559V84.3867H148.887V103.357Z" fill="#231F20"/>
<path d="M135.242 34.2137H137.21V27.8511C137.21 27.3052 136.229 26.4248 136.229 26.4248C136.229 26.4248 135.248 27.3052 135.248 27.8511L135.242 34.2137Z" fill="#231F20"/>
<rect x="180.673" y="87.7969" width="31.5057" height="2.67065" transform="rotate(-180 180.673 87.7969)" fill="white"/>
<path fill-rule="evenodd" clip-rule="evenodd" d="M149.15 88.0437H180.679C180.822 88.0437 180.939 87.929 180.942 87.7854V85.1089C180.942 84.963 180.824 84.8448 180.679 84.8448H149.15C149.079 84.8432 149.011 84.8703 148.96 84.92C148.91 84.9698 148.881 85.0378 148.881 85.1089V87.7796C148.881 87.8507 148.91 87.9187 148.96 87.9684C149.011 88.0182 149.079 88.0453 149.15 88.0437ZM180.416 87.5096H149.436V85.3731H180.416V87.5096Z" fill="#231F20"/>
<rect x="180.673" y="103.646" width="31.5057" height="15.8537" transform="rotate(-180 180.673 103.646)" fill="white"/>
<path fill-rule="evenodd" clip-rule="evenodd" d="M149.15 103.892H180.679C180.824 103.892 180.942 103.774 180.942 103.628V87.7799C180.943 87.7088 180.916 87.6401 180.867 87.5893C180.818 87.5385 180.75 87.5099 180.679 87.5099H149.15C149.078 87.5083 149.009 87.5362 148.958 87.5872C148.908 87.6382 148.88 87.7078 148.881 87.7799V103.628C148.881 103.699 148.91 103.767 148.96 103.817C149.011 103.866 149.079 103.893 149.15 103.892ZM180.416 103.358H149.436V88.044H180.416V103.358Z" fill="#231F20"/>
<path d="M150.055 85.391C149.984 85.3911 149.916 85.3624 149.867 85.3116C149.818 85.2608 149.791 85.1921 149.792 85.121V53.7247C149.777 53.6199 149.824 53.5156 149.912 53.4581C150.001 53.4007 150.115 53.4007 150.203 53.4581C150.292 53.5156 150.339 53.6199 150.323 53.7247V85.1093C150.328 85.1834 150.302 85.2561 150.251 85.3097C150.2 85.3634 150.129 85.3929 150.055 85.391Z" fill="#231F20"/>
<path d="M64.2842 104.479C64.1264 104.476 63.9984 104.35 63.9922 104.191C63.9907 104.113 64.02 104.038 64.0736 103.982C64.1273 103.926 64.2009 103.893 64.2783 103.892C67.3508 103.792 70.2298 102.36 72.1723 99.9651C72.2244 99.9008 72.3002 99.8605 72.3825 99.8536C72.4648 99.8476 72.5456 99.8775 72.6043 99.9358C74.079 101.467 76.0058 102.48 78.0986 102.824C80.1844 103.138 82.2863 102.366 83.6804 100.775C83.778 100.655 83.952 100.631 84.0774 100.722C87.4755 102.973 92.0251 102.204 94.5053 98.9614C94.563 98.8895 94.6499 98.8477 94.7418 98.8477C94.8337 98.8477 94.9206 98.8895 94.9783 98.9614C97.413 102.401 102.761 103.328 106.2 100.91C106.322 100.821 106.492 100.844 106.586 100.963C107.487 101.985 108.777 102.574 110.136 102.583C111.492 102.659 112.816 102.144 113.767 101.168C113.833 101.102 113.926 101.069 114.018 101.08C114.109 101.093 114.189 101.147 114.234 101.227C114.616 101.825 115.22 102.245 115.912 102.39C116.604 102.536 117.325 102.396 117.913 102.002C118.043 101.908 118.223 101.934 118.321 102.061C118.367 102.124 118.386 102.202 118.374 102.279C118.362 102.357 118.32 102.426 118.257 102.471C117.544 102.983 116.647 103.162 115.793 102.964C115.059 102.819 114.401 102.416 113.937 101.826C111.71 103.708 108.426 103.584 106.346 101.538C102.767 103.886 97.4247 102.976 94.7739 99.6188C92.0933 102.792 87.5096 103.523 83.984 101.339C82.454 102.945 80.2471 103.71 78.0577 103.393C75.9422 103.059 73.9829 102.07 72.4525 100.564C70.402 102.963 67.4413 104.385 64.2959 104.479H64.2842Z" fill="#D1D3D4"/>
<path d="M105.751 107.067C104.617 107.104 103.517 106.681 102.697 105.893C100.216 107.687 96.7793 107.255 94.815 104.901C92.6129 106.38 89.9463 106.992 87.3239 106.621C87.2196 106.605 87.1316 106.535 87.093 106.436C87.0544 106.337 87.0711 106.226 87.1368 106.143C87.2025 106.06 87.3072 106.018 87.4115 106.034C89.9788 106.408 92.5909 105.777 94.7099 104.273C94.7742 104.227 94.8538 104.208 94.9318 104.22C95.0086 104.237 95.077 104.281 95.1244 104.344C95.9799 105.463 97.2452 106.191 98.6382 106.366C100.031 106.542 101.436 106.149 102.54 105.277C102.599 105.224 102.677 105.199 102.756 105.206C102.833 105.214 102.905 105.252 102.954 105.312C103.783 106.21 104.993 106.647 106.2 106.486C107.449 106.291 108.657 105.895 109.78 105.312C109.851 105.281 109.932 105.279 110.004 105.308C110.076 105.336 110.134 105.393 110.165 105.465C110.231 105.612 110.165 105.785 110.019 105.852C108.836 106.447 107.564 106.844 106.253 107.026C106.086 107.048 105.919 107.062 105.751 107.067Z" fill="#D1D3D4"/>
<path d="M71.5768 107.601C71.4325 107.6 71.3109 107.492 71.2907 107.349C71.2696 107.189 71.378 107.041 71.5359 107.014C72.7371 106.829 73.8392 106.237 74.6597 105.336C74.7133 105.279 74.7864 105.245 74.864 105.242C74.9425 105.237 75.0191 105.267 75.0742 105.324C75.6729 105.951 76.4736 106.344 77.3338 106.433C78.169 106.517 78.9863 106.151 79.4824 105.471C79.5355 105.39 79.6255 105.341 79.7218 105.341C79.8166 105.348 79.9049 105.392 79.967 105.465C80.5426 106.252 81.5721 106.553 82.4777 106.198C82.5745 106.153 82.6885 106.164 82.7747 106.227C82.861 106.291 82.9057 106.397 82.8912 106.504C82.8767 106.61 82.8054 106.7 82.7054 106.738C81.6765 107.14 80.5086 106.888 79.7335 106.099C79.0965 106.755 78.2022 107.092 77.2929 107.02C76.3964 106.934 75.5521 106.557 74.8874 105.946C73.9995 106.828 72.8572 107.405 71.6235 107.595L71.5768 107.601Z" fill="#D1D3D4"/>
</svg>
